<svg width="49" height="86" viewBox="0 0 49 86" fill="none" xmlns="http://www.w3.org/2000/svg">
<path d="M18.6063 14.9625C19.4209 14.3938 20.3313 13.9453 21.3376 13.6172C22.3438 13.2891 23.398 13.125 24.5001 13.125C25.6022 13.125 26.6563 13.2891 27.6626 13.6172C28.6688 13.9453 29.5792 14.3938 30.3938 14.9625C30.9529 14.3646 31.3881 13.6865 31.6996 12.9281C32.011 12.1698 32.1667 11.3604 32.1667 10.5C32.1667 8.56042 31.42 6.90885 29.9266 5.54531C28.4332 4.18177 26.6244 3.5 24.5001 3.5C22.3758 3.5 20.5669 4.18177 19.0735 5.54531C17.5801 6.90885 16.8334 8.56042 16.8334 10.5C16.8334 11.3604 16.9891 12.1698 17.3006 12.9281C17.6121 13.6865 18.0473 14.3646 18.6063 14.9625ZM24.5001 11.375C23.5577 11.375 22.7631 11.0797 22.1162 10.4891C21.4694 9.89844 21.1459 9.17292 21.1459 8.3125C21.1459 7.45208 21.4694 6.72656 22.1162 6.13594C22.7631 5.54531 23.5577 5.25 24.5001 5.25C25.4424 5.25 26.2371 5.54531 26.8839 6.13594C27.5308 6.72656 27.8542 7.45208 27.8542 8.3125C27.8542 9.17292 27.5308 9.89844 26.8839 10.4891C26.2371 11.0797 25.4424 11.375 24.5001 11.375ZM24.5001 19.25C23.1744 19.25 21.9286 19.0203 20.7626 18.5609C19.5966 18.1016 18.5824 17.4781 17.7199 16.6906C16.8574 15.9031 16.1746 14.9771 15.6714 13.9125C15.1683 12.8479 14.9167 11.7104 14.9167 10.5C14.9167 9.28958 15.1683 8.15208 15.6714 7.0875C16.1746 6.02292 16.8574 5.09687 17.7199 4.30937C18.5824 3.52187 19.5966 2.89844 20.7626 2.43906C21.9286 1.97969 23.1744 1.75 24.5001 1.75C25.8258 1.75 27.0716 1.97969 28.2376 2.43906C29.4036 2.89844 30.4178 3.52187 31.2803 4.30937C32.1428 5.09687 32.8256 6.02292 33.3287 7.0875C33.8319 8.15208 34.0834 9.28958 34.0834 10.5C34.0834 11.7104 33.8319 12.8479 33.3287 13.9125C32.8256 14.9771 32.1428 15.9031 31.2803 16.6906C30.4178 17.4781 29.4036 18.1016 28.2376 18.5609C27.0716 19.0203 25.8258 19.25 24.5001 19.25Z" fill="#1D1B20"/>
<path d="M4.08341 35C4.08341 46.0457 13.2243 55 24.5001 55C35.7759 55 44.9167 46.0457 44.9167 35C44.9167 23.9543 35.7759 15 24.5001 15C13.2243 15 4.08341 23.9543 4.08341 35Z" stroke="#1E1E1E" stroke-width="4" stroke-linecap="round" stroke-linejoin="round"/>
<path d="M30.3937 54.0375C29.5791 54.6062 28.6687 55.0547 27.6624 55.3828C26.6562 55.7109 25.602 55.875 24.4999 55.875C23.3978 55.875 22.3437 55.7109 21.3374 55.3828C20.3312 55.0547 19.4208 54.6062 18.6062 54.0375C18.0471 54.6354 17.6119 55.3135 17.3004 56.0719C16.989 56.8302 16.8333 57.6396 16.8333 58.5C16.8333 60.4396 17.58 62.0911 19.0734 63.4547C20.5668 64.8182 22.3756 65.5 24.4999 65.5C26.6242 65.5 28.4331 64.8182 29.9265 63.4547C31.4199 62.0911 32.1666 60.4396 32.1666 58.5C32.1666 57.6396 32.0109 56.8302 31.6994 56.0719C31.3879 55.3135 30.9527 54.6354 30.3937 54.0375ZM24.4999 57.625C25.4423 57.625 26.2369 57.9203 26.8838 58.5109C27.5306 59.1016 27.8541 59.8271 27.8541 60.6875C27.8541 61.5479 27.5306 62.2734 26.8838 62.8641C26.2369 63.4547 25.4423 63.75 24.4999 63.75C23.5576 63.75 22.7629 63.4547 22.1161 62.8641C21.4692 62.2734 21.1458 61.5479 21.1458 60.6875C21.1458 59.8271 21.4692 59.1016 22.1161 58.5109C22.7629 57.9203 23.5576 57.625 24.4999 57.625ZM24.4999 49.75C25.8256 49.75 27.0714 49.9797 28.2374 50.4391C29.4034 50.8984 30.4176 51.5219 31.2801 52.3094C32.1426 53.0969 32.8254 54.0229 33.3286 55.0875C33.8317 56.1521 34.0833 57.2896 34.0833 58.5C34.0833 59.7104 33.8317 60.8479 33.3286 61.9125C32.8254 62.9771 32.1426 63.9031 31.2801 64.6906C30.4176 65.4781 29.4034 66.1016 28.2374 66.5609C27.0714 67.0203 25.8256 67.25 24.4999 67.25C23.1742 67.25 21.9284 67.0203 20.7624 66.5609C19.5964 66.1016 18.5822 65.4781 17.7197 64.6906C16.8572 63.9031 16.1744 62.9771 15.6713 61.9125C15.1681 60.8479 14.9166 59.7104 14.9166 58.5C14.9166 57.2896 15.1681 56.1521 15.6713 55.0875C16.1744 54.0229 16.8572 53.0969 17.7197 52.3094C18.5822 51.5219 19.5964 50.8984 20.7624 50.4391C21.9284 49.9797 23.1742 49.75 24.4999 49.75Z" fill="#1D1B20"/>
</svg>
