<svg width="96" height="92" viewBox="0 0 96 92" fill="none" xmlns="http://www.w3.org/2000/svg">
<path d="M66.7083 19.75H26.4583C23.2826 19.75 20.7083 22.2871 20.7083 25.4167V65.0833C20.7083 68.2129 23.2826 70.75 26.4583 70.75H66.7083C69.8839 70.75 72.4583 68.2129 72.4583 65.0833V25.4167C72.4583 22.2871 69.8839 19.75 66.7083 19.75Z" stroke="#1E1E1E" stroke-width="4" stroke-linecap="round" stroke-linejoin="round"/>
<path d="M37.1019 20.7625C38.4123 19.8687 39.8769 19.1641 41.4957 18.6484C43.1144 18.1328 44.8103 17.875 46.5832 17.875C48.3561 17.875 50.0519 18.1328 51.6707 18.6484C53.2894 19.1641 54.754 19.8687 56.0644 20.7625C56.9637 19.8229 57.6639 18.7573 58.1649 17.5656C58.666 16.374 58.9165 15.1021 58.9165 13.75C58.9165 10.7021 57.7153 8.10677 55.3129 5.96406C52.9104 3.82135 50.0005 2.75 46.5832 2.75C43.1658 2.75 40.2559 3.82135 37.8535 5.96406C35.4511 8.10677 34.2498 10.7021 34.2498 13.75C34.2498 15.1021 34.5004 16.374 35.0014 17.5656C35.5024 18.7573 36.2026 19.8229 37.1019 20.7625ZM46.5832 15.125C45.0672 15.125 43.7889 14.6609 42.7483 13.7328C41.7077 12.8047 41.1873 11.6646 41.1873 10.3125C41.1873 8.96042 41.7077 7.82031 42.7483 6.89219C43.7889 5.96406 45.0672 5.5 46.5832 5.5C48.0991 5.5 49.3774 5.96406 50.4181 6.89219C51.4587 7.82031 51.979 8.96042 51.979 10.3125C51.979 11.6646 51.4587 12.8047 50.4181 13.7328C49.3774 14.6609 48.0991 15.125 46.5832 15.125ZM46.5832 27.5C44.4505 27.5 42.4464 27.1391 40.5707 26.4172C38.695 25.6953 37.0634 24.7156 35.6759 23.4781C34.2884 22.2406 33.1899 20.7854 32.3806 19.1125C31.5712 17.4396 31.1665 15.6521 31.1665 13.75C31.1665 11.8479 31.5712 10.0604 32.3806 8.3875C33.1899 6.71458 34.2884 5.25938 35.6759 4.02187C37.0634 2.78437 38.695 1.80469 40.5707 1.08281C42.4464 0.360937 44.4505 0 46.5832 0C48.7158 0 50.72 0.360937 52.5957 1.08281C54.4714 1.80469 56.103 2.78437 57.4905 4.02187C58.878 5.25938 59.9764 6.71458 60.7858 8.3875C61.5951 10.0604 61.9998 11.8479 61.9998 13.75C61.9998 15.6521 61.5951 17.4396 60.7858 19.1125C59.9764 20.7854 58.878 22.2406 57.4905 23.4781C56.103 24.7156 54.4714 25.6953 52.5957 26.4172C50.72 27.1391 48.7158 27.5 46.5832 27.5Z" fill="#1D1B20"/>
<path d="M73.1457 35.7811C74.0936 37.0207 74.841 38.4061 75.3879 39.9373C75.9347 41.4686 76.2082 43.0728 76.2082 44.7498C76.2082 46.4269 75.9347 48.0311 75.3879 49.5623C74.841 51.0936 74.0936 52.479 73.1457 53.7186C74.1422 54.5693 75.2724 55.2316 76.5363 55.7056C77.8002 56.1795 79.1491 56.4165 80.5832 56.4165C83.8158 56.4165 86.5684 55.2802 88.841 53.0076C91.1136 50.7351 92.2498 47.9825 92.2498 44.7498C92.2498 41.5172 91.1136 38.7646 88.841 36.492C86.5684 34.2195 83.8158 33.0832 80.5832 33.0832C79.1491 33.0832 77.8002 33.3201 76.5363 33.7941C75.2724 34.2681 74.1422 34.9304 73.1457 35.7811ZM79.1248 44.7498C79.1248 43.3158 79.617 42.1066 80.6014 41.1222C81.5858 40.1379 82.795 39.6457 84.229 39.6457C85.663 39.6457 86.8722 40.1379 87.8566 41.1222C88.841 42.1066 89.3332 43.3158 89.3332 44.7498C89.3332 46.1839 88.841 47.3931 87.8566 48.3774C86.8722 49.3618 85.663 49.854 84.229 49.854C82.795 49.854 81.5858 49.3618 80.6014 48.3774C79.617 47.3931 79.1248 46.1839 79.1248 44.7498ZM65.9998 44.7498C65.9998 42.7325 66.3827 40.8366 67.1483 39.0623C67.9139 37.288 68.953 35.7446 70.2655 34.4321C71.578 33.1196 73.1214 32.0806 74.8957 31.3149C76.67 30.5493 78.5658 30.1665 80.5832 30.1665C82.6005 30.1665 84.4964 30.5493 86.2707 31.3149C88.045 32.0806 89.5884 33.1196 90.9009 34.4321C92.2134 35.7446 93.2524 37.288 94.0181 39.0623C94.7837 40.8366 95.1665 42.7325 95.1665 44.7498C95.1665 46.7672 94.7837 48.663 94.0181 50.4373C93.2524 52.2116 92.2134 53.755 90.9009 55.0675C89.5884 56.38 88.045 57.4191 86.2707 58.1847C84.4964 58.9504 82.6005 59.3332 80.5832 59.3332C78.5658 59.3332 76.67 58.9504 74.8957 58.1847C73.1214 57.4191 71.578 56.38 70.2655 55.0675C68.953 53.755 67.9139 52.2116 67.1483 50.4373C66.3827 48.663 65.9998 46.7672 65.9998 44.7498Z" fill="#1D1B20"/>
<path d="M56.0646 67.7375C54.7542 68.6312 53.2896 69.3359 51.6708 69.8516C50.0521 70.3672 48.3562 70.625 46.5833 70.625C44.8104 70.625 43.1146 70.3672 41.4958 69.8516C39.8771 69.3359 38.4125 68.6312 37.1021 67.7375C36.2028 68.6771 35.5026 69.7427 35.0016 70.9344C34.5005 72.126 34.25 73.3979 34.25 74.75C34.25 77.7979 35.4512 80.3932 37.8536 82.5359C40.2561 84.6786 43.166 85.75 46.5833 85.75C50.0007 85.75 52.9106 84.6786 55.313 82.5359C57.7155 80.3932 58.9167 77.7979 58.9167 74.75C58.9167 73.3979 58.6661 72.126 58.1651 70.9344C57.6641 69.7427 56.9639 68.6771 56.0646 67.7375ZM46.5833 73.375C48.0993 73.375 49.3776 73.8391 50.4182 74.7672C51.4589 75.6953 51.9792 76.8354 51.9792 78.1875C51.9792 79.5396 51.4589 80.6797 50.4182 81.6078C49.3776 82.5359 48.0993 83 46.5833 83C45.0674 83 43.7891 82.5359 42.7484 81.6078C41.7078 80.6797 41.1875 79.5396 41.1875 78.1875C41.1875 76.8354 41.7078 75.6953 42.7484 74.7672C43.7891 73.8391 45.0674 73.375 46.5833 73.375ZM46.5833 61C48.716 61 50.7201 61.3609 52.5958 62.0828C54.4715 62.8047 56.1031 63.7844 57.4906 65.0219C58.8781 66.2594 59.9766 67.7146 60.7859 69.3875C61.5953 71.0604 62 72.8479 62 74.75C62 76.6521 61.5953 78.4396 60.7859 80.1125C59.9766 81.7854 58.8781 83.2406 57.4906 84.4781C56.1031 85.7156 54.4715 86.6953 52.5958 87.4172C50.7201 88.1391 48.716 88.5 46.5833 88.5C44.4507 88.5 42.4465 88.1391 40.5708 87.4172C38.6951 86.6953 37.0635 85.7156 35.676 84.4781C34.2885 83.2406 33.1901 81.7854 32.3807 80.1125C31.5714 78.4396 31.1667 76.6521 31.1667 74.75C31.1667 72.8479 31.5714 71.0604 32.3807 69.3875C33.1901 67.7146 34.2885 66.2594 35.676 65.0219C37.0635 63.7844 38.6951 62.8047 40.5708 62.0828C42.4465 61.3609 44.4507 61 46.5833 61Z" fill="#1D1B20"/>
<path d="M22.0208 53.7189C21.0729 52.4793 20.3255 51.0939 19.7786 49.5627C19.2318 48.0314 18.9583 46.4272 18.9583 44.7502C18.9583 43.0731 19.2318 41.4689 19.7786 39.9377C20.3255 38.4064 21.0729 37.021 22.0208 35.7814C21.0243 34.9307 19.8941 34.2684 18.6302 33.7944C17.3663 33.3205 16.0174 33.0835 14.5833 33.0835C11.3507 33.0835 8.59809 34.2198 6.32552 36.4924C4.05295 38.7649 2.91667 41.5175 2.91667 44.7502C2.91667 47.9828 4.05295 50.7354 6.32552 53.008C8.59809 55.2805 11.3507 56.4168 14.5833 56.4168C16.0174 56.4168 17.3663 56.1799 18.6302 55.7059C19.8941 55.2319 21.0243 54.5696 22.0208 53.7189ZM16.0417 44.7502C16.0417 46.1842 15.5495 47.3934 14.5651 48.3778C13.5807 49.3621 12.3715 49.8543 10.9375 49.8543C9.50347 49.8543 8.29427 49.3621 7.3099 48.3778C6.32552 47.3934 5.83333 46.1842 5.83333 44.7502C5.83333 43.3161 6.32552 42.1069 7.3099 41.1226C8.29427 40.1382 9.50347 39.646 10.9375 39.646C12.3715 39.646 13.5807 40.1382 14.5651 41.1226C15.5495 42.1069 16.0417 43.3161 16.0417 44.7502ZM29.1667 44.7502C29.1667 46.7675 28.7839 48.6634 28.0182 50.4377C27.2526 52.212 26.2135 53.7554 24.901 55.0679C23.5885 56.3804 22.0451 57.4194 20.2708 58.1851C18.4965 58.9507 16.6007 59.3335 14.5833 59.3335C12.566 59.3335 10.6701 58.9507 8.89583 58.1851C7.12153 57.4194 5.57812 56.3804 4.26562 55.0679C2.95312 53.7554 1.91406 52.212 1.14844 50.4377C0.382812 48.6634 0 46.7675 0 44.7502C0 42.7328 0.382812 40.837 1.14844 39.0627C1.91406 37.2884 2.95312 35.745 4.26562 34.4325C5.57812 33.12 7.12153 32.0809 8.89583 31.3153C10.6701 30.5496 12.566 30.1668 14.5833 30.1668C16.6007 30.1668 18.4965 30.5496 20.2708 31.3153C22.0451 32.0809 23.5885 33.12 24.901 34.4325C26.2135 35.745 27.2526 37.2884 28.0182 39.0627C28.7839 40.837 29.1667 42.7328 29.1667 44.7502Z" fill="#1D1B20"/>
</svg>
