<svg width="69" height="48" viewBox="0 0 69 48" fill="none" xmlns="http://www.w3.org/2000/svg">
<path d="M14.0834 24C14.0834 35.0457 23.2243 44 34.5001 44C45.7759 44 54.9167 35.0457 54.9167 24C54.9167 12.9543 45.7759 4 34.5001 4C23.2243 4 14.0834 12.9543 14.0834 24Z" stroke="#1E1E1E" stroke-width="4" stroke-linecap="round" stroke-linejoin="round"/>
<path d="M14.9625 30.3939C14.3938 29.5793 13.9453 28.6689 13.6172 27.6627C13.2891 26.6564 13.125 25.6022 13.125 24.5002C13.125 23.3981 13.2891 22.3439 13.6172 21.3377C13.9453 20.3314 14.3938 19.421 14.9625 18.6064C14.3646 18.0474 13.6865 17.6121 12.9281 17.3007C12.1698 16.9892 11.3604 16.8335 10.5 16.8335C8.56042 16.8335 6.90885 17.5802 5.54531 19.0736C4.18177 20.567 3.5 22.3759 3.5 24.5002C3.5 26.6245 4.18177 28.4333 5.54531 29.9267C6.90885 31.4201 8.56042 32.1668 10.5 32.1668C11.3604 32.1668 12.1698 32.0111 12.9281 31.6996C13.6865 31.3882 14.3646 30.9529 14.9625 30.3939ZM11.375 24.5002C11.375 25.4425 11.0797 26.2371 10.4891 26.884C9.89844 27.5309 9.17292 27.8543 8.3125 27.8543C7.45208 27.8543 6.72656 27.5309 6.13594 26.884C5.54531 26.2371 5.25 25.4425 5.25 24.5002C5.25 23.5578 5.54531 22.7632 6.13594 22.1163C6.72656 21.4694 7.45208 21.146 8.3125 21.146C9.17292 21.146 9.89844 21.4694 10.4891 22.1163C11.0797 22.7632 11.375 23.5578 11.375 24.5002ZM19.25 24.5002C19.25 25.8259 19.0203 27.0717 18.5609 28.2377C18.1016 29.4036 17.4781 30.4179 16.6906 31.2804C15.9031 32.1429 14.9771 32.8257 13.9125 33.3288C12.8479 33.8319 11.7104 34.0835 10.5 34.0835C9.28958 34.0835 8.15208 33.8319 7.0875 33.3288C6.02292 32.8257 5.09687 32.1429 4.30937 31.2804C3.52187 30.4179 2.89844 29.4036 2.43906 28.2377C1.97969 27.0717 1.75 25.8259 1.75 24.5002C1.75 23.1745 1.97969 21.9286 2.43906 20.7627C2.89844 19.5967 3.52187 18.5825 4.30937 17.72C5.09687 16.8575 6.02292 16.1746 7.0875 15.6715C8.15208 15.1684 9.28958 14.9168 10.5 14.9168C11.7104 14.9168 12.8479 15.1684 13.9125 15.6715C14.9771 16.1746 15.9031 16.8575 16.6906 17.72C17.4781 18.5825 18.1016 19.5967 18.5609 20.7627C19.0203 21.9286 19.25 23.1745 19.25 24.5002Z" fill="#1D1B20"/>
<path d="M54.0375 18.6061C54.6062 19.4207 55.0547 20.3311 55.3828 21.3373C55.7109 22.3436 55.875 23.3978 55.875 24.4998C55.875 25.6019 55.7109 26.6561 55.3828 27.6623C55.0547 28.6686 54.6062 29.579 54.0375 30.3936C54.6354 30.9526 55.3135 31.3879 56.0719 31.6993C56.8302 32.0108 57.6396 32.1665 58.5 32.1665C60.4396 32.1665 62.0911 31.4198 63.4547 29.9264C64.8182 28.433 65.5 26.6241 65.5 24.4998C65.5 22.3755 64.8182 20.5667 63.4547 19.0733C62.0911 17.5799 60.4396 16.8332 58.5 16.8332C57.6396 16.8332 56.8302 16.9889 56.0719 17.3004C55.3135 17.6118 54.6354 18.0471 54.0375 18.6061ZM57.625 24.4998C57.625 23.5575 57.9203 22.7629 58.5109 22.116C59.1016 21.4691 59.8271 21.1457 60.6875 21.1457C61.5479 21.1457 62.2734 21.4691 62.8641 22.116C63.4547 22.7629 63.75 23.5575 63.75 24.4998C63.75 25.4422 63.4547 26.2368 62.8641 26.8837C62.2734 27.5306 61.5479 27.854 60.6875 27.854C59.8271 27.854 59.1016 27.5306 58.5109 26.8837C57.9203 26.2368 57.625 25.4422 57.625 24.4998ZM49.75 24.4998C49.75 23.1741 49.9797 21.9283 50.4391 20.7623C50.8984 19.5964 51.5219 18.5821 52.3094 17.7196C53.0969 16.8571 54.0229 16.1743 55.0875 15.6712C56.1521 15.1681 57.2896 14.9165 58.5 14.9165C59.7104 14.9165 60.8479 15.1681 61.9125 15.6712C62.9771 16.1743 63.9031 16.8571 64.6906 17.7196C65.4781 18.5821 66.1016 19.5964 66.5609 20.7623C67.0203 21.9283 67.25 23.1741 67.25 24.4998C67.25 25.8255 67.0203 27.0714 66.5609 28.2373C66.1016 29.4033 65.4781 30.4175 64.6906 31.28C63.9031 32.1425 62.9771 32.8254 61.9125 33.3285C60.8479 33.8316 59.7104 34.0832 58.5 34.0832C57.2896 34.0832 56.1521 33.8316 55.0875 33.3285C54.0229 32.8254 53.0969 32.1425 52.3094 31.28C51.5219 30.4175 50.8984 29.4033 50.4391 28.2373C49.9797 27.0714 49.75 25.8255 49.75 24.4998Z" fill="#1D1B20"/>
</svg>
